<?xml version="1.0" encoding="UTF-8"?>
<svg id="Calque_1" data-name="Calque 1" xmlns="http://www.w3.org/2000/svg" viewBox="0 0 1920 1080">
  <defs>
    <style>
      .cls-1 {
        fill: #d04848;
      }

      .cls-1, .cls-2, .cls-3, .cls-4 {
        stroke-width: 0px;
      }

      .cls-3 {
        fill: #f3b95f;
      }

      .cls-4 {
        fill: #6895d2;
      }
    </style>
  </defs>
  <g>
    <rect class="cls-1" x=".5" y=".5" width="1919" height="1079"/>
    <path class="cls-2" d="m1919,1v1078H1V1h1918m1-1H0v1080h1920V0h0Z"/>
  </g>
  <polygon class="cls-3" points="0 705.65 191.3 511 374.52 705.65 685.48 524 1012 1080 942.78 1080 665.38 642.94 387.45 831 184.37 617 0 795.5 0 705.65"/>
  <polygon class="cls-4" points="458.58 1080 983.48 540 1088 648 1578.06 0 1680.26 0 1090 752 977 629 545 1080 458.58 1080"/>
  <polygon class="cls-3" points="928.23 0 1425 397 1627 246 1658 425 1785 267 1861.9 425 1920 331.71 1920 478.03 1867 559 1774 387 1662.16 540 1590 360 1409 499 851.58 0 928.23 0"/>
  <polygon class="cls-4" points="0 131.97 206 234 322 197 389.39 279.5 649.52 279.5 960 97.06 1169.77 0 1076.87 0 638 223 419.58 227.19 312.74 139.75 206 169 0 76.23 0 131.97"/>
</svg>